<svg xmlns="http://www.w3.org/2000/svg" viewBox="0 0 100 100">
  <rect width="100" height="100" fill="#0a0a0a"/>
  <path d="M50 82 C50 82 15 60 15 38 C15 25 25 16 36 16 C43 16 48 20 50 25 C52 20 57 16 64 16 C75 16 85 25 85 38 C85 60 50 82 50 82Z" fill="#c0392b"/>
  <line x1="50" y1="28" x2="50" y2="36" stroke="#27ae60" stroke-width="5" stroke-linecap="round"/>
  <path d="M38 42 C38 37 44 34 50 34 C56 34 62 37 62 42 C62 47 56 50 50 50 C44 50 38 53 38 58 C38 63 44 66 50 66 C56 66 62 63 62 58" stroke="#27ae60" stroke-width="5" fill="none" stroke-linecap="round"/>
  <line x1="50" y1="64" x2="50" y2="72" stroke="#27ae60" stroke-width="5" stroke-linecap="round"/>
  <line x1="42" y1="38" x2="58" y2="70" stroke="#0a0a0a" stroke-width="3" stroke-linecap="round"/>
</svg>
